<?xml version="1.0" encoding="UTF-8"?>
<svg version="1.1" viewBox="0 0 1440 1440" width="1280" height="1280" xmlns="http://www.w3.org/2000/svg">
<path transform="translate(0)" d="m0 0h1440v1440h-1440z" fill="#3A4653"/>
<path transform="translate(252,320)" d="m0 0h57l35 1 2 10 5 31 7 29 12 35 11 25 11 21 15 24 12 17 7 9 11 13 12 13 16 16 11 9 10 9 19 14 20 13 22 12 16 8 29 12 26 8 30 7 18 3 37 4h33l32-3 36-6 22-6 27-9 28-12 20-10 14-8 12-8 16-11 13-10 13-11 10-9 12-11 24-28 14-19 9-14 9-15 12-23 9-20 9-24 8-28 5-24 5-30 1-3h151l14 4 10 6 9 8 7 10 5 12 1 4 1 16v933l-2 17-5 12-6 9-5 6-14 9-11 4-7 1-51 1h-964l-36-1-13-4-8-4-11-9-9-13-5-14-1-9-1-139v-637l1-176 3-10 8-14 9-10 13-8 9-3 5-1z" fill="#F9F9F9"/>
<path transform="translate(745)" d="m0 0h695v1440h-186l4-2 21-6 18-8 15-10 14-12 13-16 8-14 8-19 4-18 1-11v-953l-2-19-5-18-9-19-8-12-12-14-10-9-15-10-15-7-15-5-16-3-10-1-238-1-2-10-6-29-6-20-10-25-12-24-13-21-14-18-11-13-20-20-11-9-20-15-27-16-21-10-24-9-27-7-36-6z" fill="#F9F9F9"/>
<path transform="translate(0)" d="m0 0h691v1l-32 6-27 7-19 7-26 12-18 10-16 11-12 9-15 13-23 23-11 14-10 14-12 20-11 21-10 26-7 24-6 31-2 4-240 1-21 3-18 6-16 8-14 10-15 14-10 13-9 16-6 15-4 17-1 7v962l2 18 5 17 8 17 9 13 9 11 8 8 18 13 14 7 24 8 8 2v1h-185z" fill="#F9F9F9"/>
<path transform="translate(698,68)" d="m0 0h42l21 3 25 6 19 7 19 9 13 8 16 11 11 9 10 9 9 9 11 14 9 12 12 20 9 20 8 24 5 24 2 16v36l-4 27-6 23-10 25-11 21-13 19-11 13-11 12-8 7-15 12-15 10-20 11-25 10-25 7-28 4-16 1-19-1-25-4-27-7-19-7-23-12-17-11-10-8-10-9-15-15-9-11-10-13-9-15-8-16-6-15-6-19-5-24-3-25v-18l3-26 5-23 8-24 8-18 10-17 12-17 11-12 7-8 5-5h2v-2l8-7 14-11 25-15 19-9 20-7 21-5z" fill="#F9F9F9"/>
<path transform="translate(967,742)" d="m0 0 20 2 16 3 24 8 23 11 15 10 16 12 10 8 7 7 8 7 7 7 7 8 10 13 11 18 5 11 5 15 3 20-1 16-3 17-5 16-5 13-8 16-10 17-11 17-14 22-13 21-11 19-17 34-12 30-9 24-14 38-14 34-12 24-10 15-10 13-13 13-14 9-11 5-15 4-7 1h-10l-16-3-15-5-15-9-9-8-10-14-7-16-3-12-1-10v-16l2-22 5-23 6-20 9-22 8-16 12-23 12-22 13-26 8-20 5-18 2-14v-34l-4-25-8-32-6-26-4-23-1-9v-25l3-21 6-18 7-13 8-10 9-8 13-8 11-4 9-2z" fill="#2C7AC4"/>
<path transform="translate(458,743)" d="m0 0h24l18 4 14 7 9 7 9 9 9 14 7 19 4 21v26l-3 22-5 25-12 52-3 18-1 12v12l2 16 5 22 8 22 12 25 11 21 12 21 11 23 10 25 6 19 4 20 2 16v25l-3 15-5 14-6 10-11 13-12 9-16 8-15 4-7 1h-10l-17-3-14-5-14-9-10-9-7-7-12-16-12-20-11-23-13-33-15-41-7-19-12-29-10-21-6-10-6-11-16-27-33-51-9-16-9-23-4-14-2-12v-24l3-17 6-18 7-14 12-17 22-24 3-1 2-4 8-7 14-12 17-11 15-9 21-10 24-7z" fill="#2C7AC4"/>
<path transform="translate(422,320)" d="m0 0h11l2 1 7 36 8 26 8 20 12 24 13 21 12 16 14 17 17 17 11 9 12 10 15 10 14 9 22 11 27 11 24 7 26 5 31 3h24l25-2 27-5 21-6 23-8 26-12 22-13 16-11 11-9 14-12 17-17 11-14 10-13 10-16 8-14 11-23 10-28 6-25 5-24h45l-2 18-5 26-7 24-9 25-11 24-13 23-8 12-12 17-9 11-14 15-21 21-11 9-12 9-16 11-22 13-15 8-32 13-26 8-22 5-27 4-31 2-30-1-31-4-26-5-27-8-27-11-21-10-21-12-11-8-14-10-13-11-10-9-24-24-9-11-10-13-12-18-9-15-12-23-8-19-9-27-5-19-5-26-1-14z" fill="#F9F9F9"/>
<path transform="translate(797,145)" d="m0 0h10l7 3 5 5 4 5 1 2v14l-14 25-16 27-26 46-7 12-1 5 4 8 1 5v13l-4 13-6 9-7 8-12 7-9 3h-12l-13-4-11-7-9-10-5-11-2-9v-10l3-13 6-10 8-8 14-7 14-3 13-22 14-25 13-22 10-17 14-24 7-6z" fill="#2C7AC4"/>
<path transform="translate(977,628)" d="m0 0 17 1 12 4 8 7 5 10 1 3v11l-2 12-5 13-7 12-11 13-13 9-8 4-13 3h-10l-9-4-6-7-5-11-2-10v-17l6-21 8-13 5-5 8-7 10-5z" fill="#2C7AC4"/>
<path transform="translate(446,629)" d="m0 0h22l10 3 11 7 9 10 9 17 4 15v18l-3 13-6 10-9 6-11 2-11-1-12-5-13-9-8-9-10-16-6-15-2-12v-8l2-9 6-8 8-6z" fill="#2C7AC4"/>
<path transform="translate(1056,666)" d="m0 0 13 1 11 4 8 9 2 6v12l-4 13-7 11-9 10-10 6-7 3h-13l-7-3-7-7-3-7-1-6v-15l3-12 5-10 6-7 11-6z" fill="#2C7AC4"/>
<path transform="translate(375,666)" d="m0 0h10l10 3 9 6 7 8 6 14 1 5v17l-4 11-7 8-8 3h-10l-11-4-9-6-7-7-6-9-5-13-1-5v-10l3-9 7-7 9-4z" fill="#2C7AC4"/>
<path transform="translate(330,714)" d="m0 0 9 1 10 6 7 8 4 12v18l-4 8-6 5-4 2h-9l-10-4-9-7-7-11-4-11v-15l5-6 8-4z" fill="#2C7AC4"/>
<path transform="translate(1103,715)" d="m0 0h14l10 5 5 7 1 3v11l-4 11-4 6-7 8-8 5-10 3-11-2-7-8-3-10 1-13 4-11 4-6 7-6z" fill="#2C7AC4"/>
<path transform="translate(1147,759)" d="m0 0 10 1 8 4 4 5 2 5v9l-7 14-5 6-11 7-3 1h-11l-7-6-3-6v-17l4-10 8-9 6-3z" fill="#2C7AC4"/>
<path transform="translate(284,760)" d="m0 0h12l8 3 7 7 5 11 1 11-2 9-5 7-6 3h-11l-8-5-5-4-7-10-4-11v-8l3-6 6-5z" fill="#2C7AC4"/>
<path transform="translate(1167,812)" d="m0 0h12l6 3 5 6 1 2v8l-4 10-5 7-8 6-6 2h-8l-6-5-3-7v-10l3-11 5-7z" fill="#2C7AC4"/>
<path transform="translate(260,812)" d="m0 0h12l8 4 6 8 3 8v10l-3 8-6 5-2 1-10-1-8-6-8-9-3-7v-11l4-6z" fill="#2C7AC4"/>
</svg>
